<svg width="539" height="538" viewBox="0 0 539 538" fill="none" xmlns="http://www.w3.org/2000/svg">
<path fill-rule="evenodd" clip-rule="evenodd" d="M147.361 122.786L1.24503 268.641L104.408 371.991L188.323 288.227L175.325 275.229C134.236 234.14 124.953 173.215 147.361 122.786ZM289.208 187.522L285.282 183.597C236.516 134.831 232.552 58.1238 273.196 4.18547L372.854 104.025L289.208 187.522ZM250.203 349.916L165.883 434.086L265.421 533.805C306.682 479.829 302.912 402.626 253.915 353.629L250.203 349.916ZM392.629 414.075C414.583 363.804 405.181 303.307 364.31 262.436L351.087 249.213L434.329 166.12L537.492 269.47L392.629 414.075Z" fill="#0096F4"/>
<path fill-rule="evenodd" clip-rule="evenodd" d="M220.541 307.246L260.427 347.132C308.434 395.139 315.737 468.531 282.498 524.789L357.136 450.151C407.369 399.918 407.68 318.784 357.829 268.933L312.442 223.546L312.348 223.641L278.801 190.094C231.386 142.679 223.678 70.5012 255.519 14.526L182.53 87.5147C132.297 137.748 131.986 218.882 181.837 268.733L220.446 307.342L220.541 307.246Z" fill="#08329C"/>
</svg>
