<svg width="1425" height="356" viewBox="0 0 1425 356" fill="none" xmlns="http://www.w3.org/2000/svg">
<path d="M464.479 161.321H485.921C500.377 161.321 511.379 164.931 518.928 172.15C526.638 179.208 530.493 189.073 530.493 201.746V215.703C530.493 228.375 526.638 238.241 518.928 245.299C511.379 252.358 500.377 255.726 485.921 255.405L428.821 254.202V223.162H490.981C493.229 223.162 494.354 222.039 494.354 219.793V196.934C494.354 194.688 493.229 193.565 490.981 193.565H469.538C455.082 193.565 444 190.036 436.29 182.978C428.741 175.759 424.967 165.813 424.967 153.14V139.906C424.967 127.233 428.741 117.368 436.29 110.309C444 103.251 455.082 99.8822 469.538 100.203L524.71 101.406V132.447H464.479C462.23 132.447 461.106 133.57 461.106 135.815V157.953C461.106 160.199 462.23 161.321 464.479 161.321Z" fill="#030041"/>
<path d="M590.299 254.202H554.642V101.406H590.299V254.202Z" fill="#030041"/>
<path d="M709.04 200.062V101.406H739.638V254.202H714.341L647.122 155.065H652.182V254.202H621.584V101.406H646.64L713.859 200.062H709.04Z" fill="#030041"/>
<path d="M844.588 131.003H805.558C803.309 131.003 802.185 132.126 802.185 134.372V221.237C802.185 223.483 803.309 224.606 805.558 224.606H844.588C846.837 224.606 847.961 223.483 847.961 221.237V134.372C847.961 132.126 846.837 131.003 844.588 131.003ZM766.046 218.109V137.5C766.046 124.827 769.66 115.282 776.888 108.865C784.115 102.288 794.957 98.9999 809.413 98.9999H840.733C855.189 98.9999 866.031 102.288 873.258 108.865C880.486 115.282 884.1 124.827 884.1 137.5V218.109C884.1 230.782 880.486 240.407 873.258 246.984C866.031 253.4 855.189 256.609 840.733 256.609H809.413C794.957 256.609 784.115 253.4 776.888 246.984C769.66 240.407 766.046 230.782 766.046 218.109Z" fill="#030041"/>
<path d="M994.11 165.893V101.406H1029.77V254.202H994.11V187.309L998.928 192.121H943.756L948.575 187.309V254.202H912.917V101.406H948.575V165.893L943.756 161.081H998.928L994.11 165.893Z" fill="#030041"/>
<path d="M1137.28 131.003H1098.25C1096 131.003 1094.87 132.126 1094.87 134.372V221.237C1094.87 223.483 1096 224.606 1098.25 224.606H1137.28C1139.53 224.606 1140.65 223.483 1140.65 221.237V134.372C1140.65 132.126 1139.53 131.003 1137.28 131.003ZM1058.73 218.109V137.5C1058.73 124.827 1062.35 115.282 1069.58 108.865C1076.8 102.288 1087.65 98.9999 1102.1 98.9999H1133.42C1147.88 98.9999 1158.72 102.288 1165.95 108.865C1173.18 115.282 1176.79 124.827 1176.79 137.5V218.109C1176.79 230.782 1173.18 240.407 1165.95 246.984C1158.72 253.4 1147.88 256.609 1133.42 256.609H1102.1C1087.65 256.609 1076.8 253.4 1069.58 246.984C1062.35 240.407 1058.73 230.782 1058.73 218.109Z" fill="#030041"/>
<path d="M1242.47 254.202H1206.81V101.406L1271.14 100.203C1285.59 99.8822 1296.6 103.251 1304.15 110.309C1311.85 117.368 1315.71 127.233 1315.71 139.906V163.006C1315.71 170.545 1314.02 177.443 1310.65 183.7C1307.28 189.956 1302.22 194.929 1295.47 198.618C1288.89 202.147 1280.78 203.912 1271.14 203.912H1237.65L1242.47 198.378V254.202ZM1242.47 125.469V177.684L1237.65 172.871H1276.2C1278.45 172.871 1279.57 171.749 1279.57 169.503V134.612C1279.57 132.366 1278.45 131.243 1276.2 131.243H1237.65L1242.47 125.469Z" fill="#030041"/>
<path d="M1424.97 254.202H1331.25V101.406H1423.76V132.447H1362.08L1366.9 127.634V166.375L1362.08 161.562H1418.94V192.121H1362.08L1366.9 187.309V227.974L1362.08 223.162H1424.97V254.202Z" fill="#030041"/>
<path fill-rule="evenodd" clip-rule="evenodd" d="M96.9063 80.8683L0.328342 177.274L68.5162 245.585L123.981 190.22L115.39 181.629C88.2309 154.47 82.0954 114.2 96.9063 80.8683ZM190.663 123.657L188.068 121.063C155.835 88.8298 153.215 38.1287 180.079 2.47708L245.951 68.468L190.663 123.657ZM164.882 230.995L109.149 286.628L174.941 352.539C202.213 316.863 199.721 265.834 167.335 233.448L164.882 230.995ZM259.021 273.401C273.532 240.174 267.318 200.187 240.303 173.173L231.563 164.432L286.583 109.51L354.771 177.822L259.021 273.401Z" fill="#0096F4"/>
<path fill-rule="evenodd" clip-rule="evenodd" d="M145.278 202.79L171.641 229.154C203.372 260.885 208.199 309.394 186.23 346.579L235.563 297.246C268.765 264.043 268.97 210.416 236.021 177.467L206.021 147.467L205.959 147.53L183.785 125.356C152.446 94.0168 147.351 46.3093 168.397 9.31141L120.154 57.5547C86.9508 90.7574 86.7457 144.384 119.695 177.334L145.215 202.853L145.278 202.79Z" fill="#08329C"/>
</svg>
